<svg xmlns="http://www.w3.org/2000/svg" xmlns:xlink="http://www.w3.org/1999/xlink" fill="none" version="1.1" width="88.8038330078125" height="40" viewBox="0 0 88.8038330078125 40"><g><path d="M3.64096,32Q1.84957,32,1.84957,30.1811L1.84957,14.5271Q1.84957,12.7081,3.64096,12.7081L4.0268,12.7081Q5.40479,12.7081,6.20402,13.8932L14.0586,25.7439L14.0586,14.5271Q14.0586,12.7081,15.8775,12.7081Q17.6689,12.7081,17.6689,14.5271L17.6689,30.1811Q17.6689,32,15.9602,32L15.657,32Q14.2239,32,13.4798,30.8149L5.43235,18.5233L5.43235,30.1811Q5.43235,32,3.64096,32ZM28.6101,32.3583Q24.9171,32.3583,23.0017,30.4704Q21.0863,28.5826,21.0863,24.7518L21.0863,14.5271Q21.0863,12.7081,22.9053,12.7081Q24.6967,12.7081,24.6967,14.5271L24.6967,24.5589Q24.6967,26.9014,25.7577,27.8936Q26.8188,28.8857,28.6101,28.8857Q30.4015,28.8857,31.4488,27.8936Q32.4961,26.9014,32.4961,24.5589L32.4961,14.5271Q32.4961,13.6452,32.9784,13.1767Q33.4607,12.7081,34.315,12.7081Q36.1064,12.7081,36.1064,14.5271L36.1064,24.7518Q36.1064,28.5826,34.2048,30.4704Q32.3032,32.3583,28.6101,32.3583ZM41.0121,32Q39.6341,32,39.3447,31.3248Q39.0553,30.6496,39.579,29.7952L44.5397,21.9682L40.0199,14.9129Q39.2482,13.8381,39.6616,13.2731Q40.075,12.7081,41.4255,12.7081Q42.8861,12.7081,43.6027,13.9483L46.4689,18.7162L49.3076,13.9483Q50.0241,12.7081,51.4848,12.7081Q54.0754,12.7081,52.8903,14.9129L48.3981,21.9682L53.3589,29.7952Q53.9376,30.7322,53.6069,31.3661Q53.2762,32,51.8982,32Q50.4375,32,49.721,30.7598L46.4689,25.2203L43.1893,30.7598Q42.4727,32,41.0121,32ZM64.0796,32.4685Q61.4614,32.4685,59.3945,31.2283Q57.3275,29.9881,56.1562,27.7144Q54.9849,25.4408,54.9849,22.3541Q54.9849,19.2398,56.1562,16.9661Q57.3275,14.6924,59.3945,13.4385Q61.4614,12.1845,64.0796,12.1845Q66.0364,12.1845,67.6624,12.8735Q69.2884,13.5625,70.5011,14.8302Q71.1349,15.5192,70.9145,16.2082Q70.694,16.8972,70.0601,17.2831L69.9223,17.3657Q69.5089,17.6138,68.7786,17.5587Q68.0482,17.5035,67.4144,16.9248Q66.0364,15.6846,64.0796,15.6846Q62.4536,15.6846,61.2547,16.5252Q60.0559,17.3657,59.3945,18.854Q58.733,20.3422,58.733,22.3541Q58.733,24.3384,59.3945,25.8266Q60.0559,27.3148,61.2547,28.1554Q62.4536,28.996,64.0796,28.996Q66.0364,28.996,67.4144,27.7558Q68.0482,27.177,68.6959,27.0806Q69.3435,26.9841,69.9223,27.2873L69.9774,27.3148Q70.6113,27.6455,70.8869,28.3759Q71.1625,29.1062,70.5562,29.7677Q69.3435,31.063,67.69,31.7657Q66.0364,32.4685,64.0796,32.4685ZM76.261,32Q74.4421,32,74.4421,30.1811L74.4421,14.5271Q74.4421,12.7081,76.261,12.7081L85.7692,12.7081Q87.5881,12.7081,87.5881,14.3617Q87.5881,16.0153,85.7692,16.0153L78.0249,16.0153L78.0249,20.5076L84.9424,20.5076Q86.7613,20.5076,86.7613,22.1611Q86.7613,23.8147,84.9424,23.8147L78.0249,23.8147L78.0249,28.6928L86.0723,28.6928Q87.8913,28.6928,87.8913,30.3464Q87.8913,32,86.0723,32L76.261,32Z" fill="#3787FF" fill-opacity="1"/></g></svg>